<?xml version="1.0" encoding="UTF-8"?>
<svg version="1.1" xmlns="http://www.w3.org/2000/svg" width="200" height="200">
<path d="M0 0 C1.59418007 -0.00744736 1.59418007 -0.00744736 3.2205658 -0.01504517 C6.72371071 -0.02960508 10.22681031 -0.03645908 13.72998047 -0.04199219 C16.17748006 -0.04774941 18.62497966 -0.05350707 21.07247925 -0.05926514 C26.2018047 -0.06975808 31.33111455 -0.07561168 36.46044922 -0.07910156 C43.00683643 -0.08457776 49.55301477 -0.1085946 56.09933662 -0.13707352 C61.15594061 -0.15577393 66.21249507 -0.16090947 71.26913071 -0.16243744 C73.68106094 -0.16544859 76.09299062 -0.17342463 78.50488663 -0.18662262 C112.69656774 -0.36034315 112.69656774 -0.36034315 126.28466797 12.04394531 C140.05572108 26.70536824 139.38078001 45.56764947 139.39013672 64.45019531 C139.39336209 66.0041812 139.39672704 67.5581668 139.40022278 69.1121521 C139.40617122 72.35456036 139.4080672 75.59694215 139.4074707 78.83935547 C139.40736949 82.94017932 139.42099862 87.04082844 139.43824291 91.1416111 C139.44950881 94.34891498 139.45138548 97.5561786 139.45086098 100.76350021 C139.45202017 102.2725624 139.45632169 103.78162638 139.46419334 105.29066849 C139.50318415 113.53856653 139.20383126 121.6538095 138.30932617 129.85791016 C138.22860713 130.60070536 138.14788809 131.34350056 138.06472301 132.1088047 C136.57807957 144.58584095 131.28964701 155.65056563 121.28466797 163.59863281 C106.52043839 173.54657002 89.81939307 172.46243956 72.72216797 172.42675781 C70.43636026 172.42810751 68.15055283 172.43005058 65.86474609 172.43255615 C61.09062955 172.43549305 56.31658822 172.43125609 51.54248047 172.421875 C45.45017509 172.41048143 39.358046 172.4170486 33.26574707 172.42901993 C28.5506052 172.43627735 23.8355045 172.43393281 19.12036133 172.42876434 C16.87508116 172.42743857 14.62979715 172.42903758 12.38452148 172.43372345 C-24.03527753 172.49306717 -24.03527753 172.49306717 -38.27783203 159.47363281 C-51.0629604 145.23751557 -51.24046831 127.17246583 -51.17626953 109.18847656 C-51.17829534 107.17314041 -51.18121098 105.15780498 -51.18496704 103.14247131 C-51.1893655 98.93922884 -51.18303906 94.7361789 -51.16894531 90.53295898 C-51.15184397 85.1748445 -51.16171662 79.81718066 -51.1796627 74.4590826 C-51.19055838 70.30408905 -51.18702797 66.14920047 -51.17927933 61.99420357 C-51.17729385 60.01965848 -51.17967773 58.04510352 -51.18671799 56.07056999 C-51.23479177 38.80533925 -49.85849958 24.17786401 -37.65283203 10.94628906 C-27.31300327 1.10191043 -13.59440659 0.01531391 0 0 Z " fill="#1C62B6" transform="translate(55.77783203125,13.8388671875)"/>
<path d="M0 0 C7.7459478 -0.13992584 15.49159149 -0.24608397 23.23849106 -0.31087303 C26.83702449 -0.34199247 30.43468415 -0.38409888 34.03271484 -0.45263672 C37.5146855 -0.51853753 40.99582382 -0.5538512 44.47837067 -0.56926346 C46.4325358 -0.58550661 48.38637277 -0.63222965 50.34002686 -0.67977905 C61.16944733 -0.68380061 69.36699619 2.47408912 77.4375 9.75 C90.35732061 23.87602793 90.17187619 43.1542857 90.0625 61.125 C90.05747252 62.57291511 90.05291183 64.02083192 90.04882812 65.46875 C90.03792705 68.97920259 90.02073202 72.48959007 90 76 C88.68 75.67 87.36 75.34 86 75 C86 76.32 86 77.64 86 79 C84.68 79 83.36 79 82 79 C81.67 76.36 81.34 73.72 81 71 C80.67 74.63 80.34 78.26 80 82 C78.68 82.33 77.36 82.66 76 83 C75 82 75 82 74.90234375 78.40234375 C74.9090178 76.91403133 74.92097817 75.42573568 74.9375 73.9375 C74.94201172 73.17888672 74.94652344 72.42027344 74.95117188 71.63867188 C74.9629932 69.75908129 74.98092922 67.87953101 75 66 C74.34 65.67 73.68 65.34 73 65 C73 72.92 73 80.84 73 89 C71.68 89.33 70.36 89.66 69 90 C69 81.09 69 72.18 69 63 C68.01 63.66 67.02 64.32 66 65 C66.33 65.33 66.66 65.66 67 66 C67.07325168 68.86267567 67.09238205 71.700719 67.0625 74.5625 C67.05798828 75.36880859 67.05347656 76.17511719 67.04882812 77.00585938 C67.03700518 79.00393756 67.01906914 81.00197783 67 83 C65.68 83 64.36 83 63 83 C62.67 77.39 62.34 71.78 62 66 C61.67 75.57 61.34 85.14 61 95 C59.68 95.33 58.36 95.66 57 96 C55.03177114 94.03177114 55.33751619 90.65191291 55 88 C54.360625 88.185625 53.72125 88.37125 53.0625 88.5625 C52.0415625 88.7790625 52.0415625 88.7790625 51 89 C49.41727399 87.41727399 49.65264253 85.61965997 49.4375 83.4375 C49.35371094 82.61121094 49.26992187 81.78492187 49.18359375 80.93359375 C49.12300781 80.29550781 49.06242188 79.65742187 49 79 C36.72397517 86.70297451 24.53030489 94.52304597 12.39160156 102.44042969 C2.46680045 108.91242127 -7.46641467 115.36074086 -17.56152344 121.56518555 C-20.74490466 123.53403215 -23.81853285 125.57235273 -26.8359375 127.7890625 C-30 130 -30 130 -32 130 C-32 135.61 -32 141.22 -32 147 C-30.68 146.67 -29.36 146.34 -28 146 C-28 145.34 -28 144.68 -28 144 C-25.6640625 142.23828125 -25.6640625 142.23828125 -22.625 140.3125 C-21.12839844 139.34763672 -21.12839844 139.34763672 -19.6015625 138.36328125 C-18.31378906 137.68845703 -18.31378906 137.68845703 -17 137 C-16.34 137.33 -15.68 137.66 -15 138 C-15.97195312 138.64453125 -16.94390625 139.2890625 -17.9453125 139.953125 C-20.6391299 142.19876467 -21.4595235 143.68275114 -21.8046875 147.171875 C-21.8573753 148.69718693 -21.88014743 150.22378704 -21.875 151.75 C-21.895625 152.52988281 -21.91625 153.30976563 -21.9375 154.11328125 C-21.99340255 156.40927882 -22 158.70324169 -22 161 C-26.64060992 161.12496464 -31.28020984 161.21496901 -35.92211914 161.2746582 C-37.49618623 161.29957705 -39.07014037 161.33352573 -40.64379883 161.37719727 C-50.5742975 161.64558912 -58.2363966 161.27676358 -67 156 C-67.84570557 155.51281494 -68.69141113 155.02562988 -69.56274414 154.52368164 C-79.78422572 148.45290913 -85.98319319 137.31302553 -89 126 C-90.00246741 120.32960985 -90.13118967 114.86305627 -90.09765625 109.12890625 C-90.0962413 108.206577 -90.09482635 107.28424774 -90.09336853 106.33396912 C-90.08780506 103.41011202 -90.07525942 100.48633365 -90.0625 97.5625 C-90.05748028 95.57096465 -90.0529182 93.5794281 -90.04882812 91.58789062 C-90.03784762 86.72523044 -90.02060839 81.86262853 -90 77 C-89.34 77 -88.68 77 -88 77 C-87.34 75.02 -86.68 73.04 -86 71 C-84.68 71.33 -83.36 71.66 -82 72 C-81.67 73.32 -81.34 74.64 -81 76 C-80.67 73.36 -80.34 70.72 -80 68 C-78.0625 67.4375 -78.0625 67.4375 -76 67 C-73.53910088 69.46089912 -74.22337672 76.96845878 -74 80 C-73.67 72.74 -73.34 65.48 -73 58 C-71.02 57.505 -71.02 57.505 -69 57 C-68 58 -68 58 -67.88647461 59.85766602 C-67.89171143 60.64842529 -67.89694824 61.43918457 -67.90234375 62.25390625 C-67.90556641 63.10791016 -67.90878906 63.96191406 -67.91210938 64.84179688 C-67.92048828 65.73962891 -67.92886719 66.63746094 -67.9375 67.5625 C-67.94201172 68.46419922 -67.94652344 69.36589844 -67.95117188 70.29492188 C-67.96299775 72.53001314 -67.9794778 74.76497437 -68 77 C-67.34 77 -66.68 77 -66 77 C-66 72.71 -66 68.42 -66 64 C-63.525 63.505 -63.525 63.505 -61 63 C-60.67 64.65 -60.34 66.3 -60 68 C-59.0409375 67.7215625 -59.0409375 67.7215625 -58.0625 67.4375 C-57.0415625 67.2209375 -57.0415625 67.2209375 -56 67 C-55 68 -55 68 -54 75 C-53.67 70.05 -53.34 65.1 -53 60 C-51.02 59.505 -51.02 59.505 -49 59 C-47.48578999 60.51421001 -47.78690144 61.92472768 -47.68359375 64.03515625 C-47.64169922 64.84404297 -47.59980469 65.65292969 -47.55664062 66.48632812 C-47.51732422 67.33646484 -47.47800781 68.18660156 -47.4375 69.0625 C-47.39431641 69.91650391 -47.35113281 70.77050781 -47.30664062 71.65039062 C-47.20023298 73.76672037 -47.09958269 75.88333813 -47 78 C-46.67 72.39 -46.34 66.78 -46 61 C-44.02 60.505 -44.02 60.505 -42 60 C-41 61 -41 61 -40.88647461 63.13305664 C-40.89171143 64.04949951 -40.89694824 64.96594238 -40.90234375 65.91015625 C-40.90556641 66.89951172 -40.90878906 67.88886719 -40.91210938 68.90820312 C-40.92467773 70.46958008 -40.92467773 70.46958008 -40.9375 72.0625 C-40.94201172 73.10728516 -40.94652344 74.15207031 -40.95117188 75.22851562 C-40.96300087 77.8190666 -40.97948311 80.40950559 -41 83 C-40.34 83 -39.68 83 -39 83 C-39 77.39 -39 71.78 -39 66 C-37.35 66.33 -35.7 66.66 -34 67 C-33.96241577 65.82981323 -33.96241577 65.82981323 -33.92407227 64.63598633 C-33.80650056 61.02805455 -33.68451995 57.42028397 -33.5625 53.8125 C-33.52318359 52.58595703 -33.48386719 51.35941406 -33.44335938 50.09570312 C-33.16711943 42.04224619 -32.68770173 34.02881221 -32 26 C-28.43545287 27.33188741 -25.28486754 28.91816049 -22.04296875 30.90625 C-21.10203369 31.48101074 -20.16109863 32.05577148 -19.19165039 32.64794922 C-18.20028076 33.25912598 -17.20891113 33.87030273 -16.1875 34.5 C-14.66274048 35.43416748 -14.66274048 35.43416748 -13.10717773 36.38720703 C-4.707077 41.54173911 3.66098777 46.74726951 12 52 C12.495 51.01 12.495 51.01 13 50 C12.401875 49.95875 11.80375 49.9175 11.1875 49.875 C8.56141804 48.82456722 7.8424504 47.67275583 6.72265625 45.12109375 C2.4734571 32.64912004 1.79498129 20.05285816 2 7 C1.34 7 0.68 7 0 7 C0 4.69 0 2.38 0 0 Z " fill="#48B1F4" transform="translate(100,21)"/>
<path d="M0 0 C7.7459478 -0.13992584 15.49159149 -0.24608397 23.23849106 -0.31087303 C26.83702449 -0.34199247 30.43468415 -0.38409888 34.03271484 -0.45263672 C37.5146855 -0.51853753 40.99582382 -0.5538512 44.47837067 -0.56926346 C46.4325358 -0.58550661 48.38637277 -0.63222965 50.34002686 -0.67977905 C61.16944733 -0.68380061 69.36699619 2.47408912 77.4375 9.75 C90.35732061 23.87602793 90.17187619 43.1542857 90.0625 61.125 C90.05747252 62.57291511 90.05291183 64.02083192 90.04882812 65.46875 C90.03792705 68.97920259 90.02073202 72.48959007 90 76 C88.02 75.505 88.02 75.505 86 75 C86 76.32 86 77.64 86 79 C84.68 79 83.36 79 82 79 C81.505 75.04 81.505 75.04 81 71 C80.67 74.63 80.34 78.26 80 82 C78.68 82.33 77.36 82.66 76 83 C75 82 75 82 74.90234375 78.40234375 C74.9090178 76.91403133 74.92097817 75.42573568 74.9375 73.9375 C74.94201172 73.17888672 74.94652344 72.42027344 74.95117188 71.63867188 C74.9629932 69.75908129 74.98092922 67.87953101 75 66 C74.34 65.67 73.68 65.34 73 65 C73 72.92 73 80.84 73 89 C71.68 89.33 70.36 89.66 69 90 C69 81.09 69 72.18 69 63 C68.01 63.66 67.02 64.32 66 65 C66.33 65.33 66.66 65.66 67 66 C67.07325168 68.86267567 67.09238205 71.700719 67.0625 74.5625 C67.05798828 75.36880859 67.05347656 76.17511719 67.04882812 77.00585938 C67.03700518 79.00393756 67.01906914 81.00197783 67 83 C65.68 83 64.36 83 63 83 C62.67 77.39 62.34 71.78 62 66 C61.67 75.57 61.34 85.14 61 95 C59.02 95.495 59.02 95.495 57 96 C55.03177114 94.03177114 55.33751619 90.65191291 55 88 C54.360625 88.185625 53.72125 88.37125 53.0625 88.5625 C52.0415625 88.7790625 52.0415625 88.7790625 51 89 C50 88 50 88 49.90234375 85.05859375 C49.91394531 83.86363281 49.92554688 82.66867188 49.9375 81.4375 C49.94652344 80.23996094 49.95554688 79.04242188 49.96484375 77.80859375 C49.97644531 76.88175781 49.98804688 75.95492187 50 75 C48.97326172 74.62875 48.97326172 74.62875 47.92578125 74.25 C44.49187597 72.78291096 41.36498031 70.94347074 38.1875 69 C37.54603027 68.60917236 36.90456055 68.21834473 36.24365234 67.81567383 C34.87644939 66.98111518 33.51026503 66.1448859 32.14501953 65.30712891 C29.93848957 63.96251686 27.7184554 62.64247128 25.49609375 61.32421875 C24.03868088 60.44594546 22.58163962 59.56705516 21.125 58.6875 C20.42914795 58.27951172 19.7332959 57.87152344 19.01635742 57.45117188 C14.15504899 54.47986405 14.15504899 54.47986405 13.30810547 51.85864258 C13.20643066 51.24529053 13.10475586 50.63193848 13 50 C12.401875 49.95875 11.80375 49.9175 11.1875 49.875 C8.56141804 48.82456722 7.8424504 47.67275583 6.72265625 45.12109375 C2.4734571 32.64912004 1.79498129 20.05285816 2 7 C1.34 7 0.68 7 0 7 C0 4.69 0 2.38 0 0 Z " fill="#46AFF2" transform="translate(100,21)"/>
<path d="M0 0 C1.59418007 -0.00744736 1.59418007 -0.00744736 3.2205658 -0.01504517 C6.72371071 -0.02960508 10.22681031 -0.03645908 13.72998047 -0.04199219 C16.17748006 -0.04774941 18.62497966 -0.05350707 21.07247925 -0.05926514 C26.2018047 -0.06975808 31.33111455 -0.07561168 36.46044922 -0.07910156 C43.00683643 -0.08457776 49.55301477 -0.1085946 56.09933662 -0.13707352 C61.15594061 -0.15577393 66.21249507 -0.16090947 71.26913071 -0.16243744 C73.68106094 -0.16544859 76.09299062 -0.17342463 78.50488663 -0.18662262 C112.69656774 -0.36034315 112.69656774 -0.36034315 126.28466797 12.04394531 C140.05572108 26.70536824 139.38078001 45.56764947 139.39013672 64.45019531 C139.39336209 66.0041812 139.39672704 67.5581668 139.40022278 69.1121521 C139.40617122 72.35456036 139.4080672 75.59694215 139.4074707 78.83935547 C139.40736949 82.94017932 139.42099862 87.04082844 139.43824291 91.1416111 C139.44950881 94.34891498 139.45138548 97.5561786 139.45086098 100.76350021 C139.45202017 102.2725624 139.45632169 103.78162638 139.46419334 105.29066849 C139.50318415 113.53856653 139.20383126 121.6538095 138.30932617 129.85791016 C138.22860713 130.60070536 138.14788809 131.34350056 138.06472301 132.1088047 C136.57807957 144.58584095 131.28964701 155.65056563 121.28466797 163.59863281 C106.33857233 173.6691089 89.58798463 172.43872545 72.30029297 172.35644531 C69.98573937 172.35270957 67.67118417 172.34986525 65.35662842 172.34786987 C59.3002883 172.34027759 53.24404595 172.32066742 47.18774414 172.29846191 C40.99350303 172.27790806 34.79924594 172.26884785 28.60498047 172.25878906 C16.47733363 172.23741698 4.34975897 172.20333488 -7.77783203 172.16113281 C-7.77783203 171.83113281 -7.77783203 171.50113281 -7.77783203 171.16113281 C18.29216797 170.83113281 44.36216797 170.50113281 71.22216797 170.16113281 C71.22216797 169.83113281 71.22216797 169.50113281 71.22216797 169.16113281 C71.93872559 169.11102051 72.6552832 169.0609082 73.39355469 169.00927734 C76.62885182 168.77769707 79.86293389 168.53209613 83.09716797 168.28613281 C84.22509766 168.2075 85.35302734 168.12886719 86.51513672 168.04785156 C87.59150391 167.9640625 88.66787109 167.88027344 89.77685547 167.79394531 C90.77185059 167.72062988 91.7668457 167.64731445 92.79199219 167.57177734 C95.39652418 167.3730486 95.39652418 167.3730486 97.22216797 165.16113281 C99.84716797 165.53613281 99.84716797 165.53613281 102.22216797 166.16113281 C103.37246943 139.39114894 103.37246943 139.39114894 93.22216797 115.16113281 C92.56216797 114.50113281 91.90216797 113.84113281 91.22216797 113.16113281 C91.22216797 112.17113281 91.22216797 111.18113281 91.22216797 110.16113281 C87.35826908 108.28438192 85.32550704 107.87955772 81.22216797 109.16113281 C78.62665032 110.66702455 76.21634386 112.40603325 73.78466797 114.16113281 C72.36275404 115.16422786 70.9395512 116.16549804 69.51513672 117.16503906 C68.44271729 117.91938232 68.44271729 117.91938232 67.34863281 118.68896484 C63.0803807 121.64390862 58.6890568 124.40485547 54.30810547 127.18847656 C52.16356023 128.55935675 50.0451152 129.97158562 47.94873047 131.41503906 C45.22216797 133.16113281 45.22216797 133.16113281 43.22216797 133.16113281 C40.16471155 123.79767252 40.16471155 123.79767252 41.22216797 119.16113281 C44.49566373 115.93488338 48.33809863 113.57979981 52.22216797 111.16113281 C53.45404007 110.3800425 54.68580764 109.59878731 55.91748047 108.81738281 C58.58294891 107.13712464 61.25890755 105.47499504 63.94091797 103.82128906 C68.4478079 101.03473744 72.90140015 98.16894297 77.34716797 95.28613281 C78.04535645 94.83391357 78.74354492 94.38169434 79.46289062 93.91577148 C80.12853027 93.48369385 80.79416992 93.05161621 81.47998047 92.60644531 C82.11323242 92.19555664 82.74648437 91.78466797 83.39892578 91.36132812 C84.59933068 90.57113122 85.7917355 89.76862305 86.97509766 88.953125 C91.02704066 86.16113281 91.02704066 86.16113281 93.22216797 86.16113281 C93.55216797 84.84113281 93.88216797 83.52113281 94.22216797 82.16113281 C94.55216797 86.45113281 94.88216797 90.74113281 95.22216797 95.16113281 C96.21216797 95.16113281 97.20216797 95.16113281 98.22216797 95.16113281 C98.55216797 89.55113281 98.88216797 83.94113281 99.22216797 78.16113281 C99.55216797 78.16113281 99.88216797 78.16113281 100.22216797 78.16113281 C100.55216797 86.08113281 100.88216797 94.00113281 101.22216797 102.16113281 C102.21216797 102.16113281 103.20216797 102.16113281 104.22216797 102.16113281 C104.55216797 92.59113281 104.88216797 83.02113281 105.22216797 73.16113281 C105.88216797 72.83113281 106.54216797 72.50113281 107.22216797 72.16113281 C107.22216797 78.10113281 107.22216797 84.04113281 107.22216797 90.16113281 C108.54216797 90.16113281 109.86216797 90.16113281 111.22216797 90.16113281 C111.08166967 87.36910271 110.93501414 84.57763486 110.78466797 81.78613281 C110.74535156 80.99207031 110.70603516 80.19800781 110.66552734 79.37988281 C110.53323393 75.1351206 110.53323393 75.1351206 109.22216797 71.16113281 C110.54216797 70.83113281 111.86216797 70.50113281 113.22216797 70.16113281 C113.22216797 79.07113281 113.22216797 87.98113281 113.22216797 97.16113281 C114.21216797 96.83113281 115.20216797 96.50113281 116.22216797 96.16113281 C116.55216797 88.24113281 116.88216797 80.32113281 117.22216797 72.16113281 C118.21216797 72.49113281 119.20216797 72.82113281 120.22216797 73.16113281 C120.22216797 78.44113281 120.22216797 83.72113281 120.22216797 89.16113281 C121.21216797 89.16113281 122.20216797 89.16113281 123.22216797 89.16113281 C123.55216797 85.20113281 123.88216797 81.24113281 124.22216797 77.16113281 C124.88216797 77.49113281 125.54216797 77.82113281 126.22216797 78.16113281 C126.22216797 80.80113281 126.22216797 83.44113281 126.22216797 86.16113281 C127.54216797 86.16113281 128.86216797 86.16113281 130.22216797 86.16113281 C130.22216797 84.84113281 130.22216797 83.52113281 130.22216797 82.16113281 C131.54216797 82.49113281 132.86216797 82.82113281 134.22216797 83.16113281 C134.12680477 79.02058669 134.02037786 74.88049763 133.90478516 70.74047852 C133.86709812 69.33951077 133.83215529 67.93846583 133.80029297 66.53735352 C133.19014413 39.28694422 133.19014413 39.28694422 119.83154297 16.32519531 C111.96600926 9.80198322 103.72640223 7.03759366 93.69970703 6.95581055 C92.94809799 6.94591095 92.19648895 6.93601135 91.42210388 6.92581177 C88.94403201 6.89428816 86.46594099 6.86947558 83.98779297 6.84472656 C82.26714588 6.82414914 80.54650376 6.80315246 78.8258667 6.78175354 C74.30169705 6.7266143 69.7774824 6.67716914 65.25323486 6.62890625 C60.63476567 6.57863168 56.01636167 6.52297672 51.39794922 6.46777344 C42.33941119 6.36029154 33.2808165 6.25882449 24.22216797 6.16113281 C24.22216797 5.83113281 24.22216797 5.50113281 24.22216797 5.16113281 C41.71216797 4.83113281 59.20216797 4.50113281 77.22216797 4.16113281 C77.55216797 3.17113281 77.88216797 2.18113281 78.22216797 1.16113281 C49.51216797 1.65613281 49.51216797 1.65613281 20.22216797 2.16113281 C21.21216797 3.64613281 21.21216797 3.64613281 22.22216797 5.16113281 C21.44204346 5.18095215 20.66191895 5.20077148 19.8581543 5.22119141 C16.25004327 5.31770631 12.64241437 5.42686235 9.03466797 5.53613281 C7.19485352 5.58253906 7.19485352 5.58253906 5.31787109 5.62988281 C-10.65248521 5.98717124 -10.65248521 5.98717124 -25.46533203 11.28613281 C-30.65821481 14.16113281 -30.65821481 14.16113281 -32.77783203 14.16113281 C-33.05884766 14.74765625 -33.33986328 15.33417969 -33.62939453 15.93847656 C-34.68827645 17.98780925 -35.85993696 19.81723021 -37.15283203 21.72363281 C-43.47818474 31.91136903 -44.78372708 42.47295057 -45.77783203 54.16113281 C-45.88998047 55.4746875 -46.00212891 56.78824219 -46.11767578 58.14160156 C-46.35694552 61.14722279 -46.57900754 64.15260428 -46.77783203 67.16113281 C-47.76783203 67.16113281 -48.75783203 67.16113281 -49.77783203 67.16113281 C-49.65846495 73.95240252 -49.53371465 80.74355927 -49.40551758 87.53466797 C-49.3626609 89.83672946 -49.32096041 92.13881281 -49.28051758 94.44091797 C-48.99156969 110.90372418 -48.99156969 110.90372418 -48.36767578 127.35644531 C-48.32460045 128.40540482 -48.32460045 128.40540482 -48.28065491 129.47555542 C-47.99177826 134.75331103 -47.64306514 140.2958997 -43.77783203 144.16113281 C-43.50970703 145.23363281 -43.24158203 146.30613281 -42.96533203 147.41113281 C-41.55834814 151.85423984 -39.96008789 153.81976416 -36.77783203 157.16113281 C-36.11783203 157.49113281 -35.45783203 157.82113281 -34.77783203 158.16113281 C-34.77783203 158.82113281 -34.77783203 159.48113281 -34.77783203 160.16113281 C-34.11783203 160.16113281 -33.45783203 160.16113281 -32.77783203 160.16113281 C-32.44783203 161.15113281 -32.11783203 162.14113281 -31.77783203 163.16113281 C-40.12873887 159.55294589 -44.51956918 151.5269541 -47.77001953 143.44628906 C-50.07954104 135.91796506 -51.07665494 128.62747182 -51.05249023 120.77099609 C-51.05760117 119.89148285 -51.0627121 119.0119696 -51.06797791 118.10580444 C-51.08174957 115.23094665 -51.08092657 112.35633194 -51.07861328 109.48144531 C-51.08250702 107.46182162 -51.08684307 105.44219875 -51.09159851 103.4225769 C-51.09903403 99.20144998 -51.09878885 94.98040673 -51.09350586 90.75927734 C-51.08771469 85.37755745 -51.10464691 79.99618211 -51.12785053 74.61451912 C-51.14265549 70.44666577 -51.1434504 66.27889412 -51.14034081 62.11101913 C-51.14085062 60.12809441 -51.14602369 58.1451647 -51.15615273 56.16226578 C-51.23372021 38.85592161 -49.89067826 24.21274737 -37.65283203 10.94628906 C-27.31300327 1.10191043 -13.59440659 0.01531391 0 0 Z " fill="#1D62B6" transform="translate(55.77783203125,13.8388671875)"/>
<path d="M0 0 C3.57506916 1.43002767 6.33202871 2.68620298 9.53515625 4.66015625 C10.41316895 5.19817871 11.29118164 5.73620117 12.19580078 6.29052734 C13.14181152 6.87527832 14.08782227 7.4600293 15.0625 8.0625 C17.12350412 9.3271388 19.18471143 10.59144652 21.24609375 11.85546875 C22.88360596 12.8616626 22.88360596 12.8616626 24.55419922 13.88818359 C28.12419964 16.07892088 31.7036007 18.25399922 35.28515625 20.42578125 C35.89664017 20.79657303 36.50812408 21.16736481 37.13813782 21.5493927 C38.96698748 22.65810081 40.79597647 23.76657874 42.625 24.875 C51.43779691 30.21618745 60.23103424 35.58722472 69 41 C69.70801758 41.4336084 70.41603516 41.8672168 71.14550781 42.31396484 C72.71064154 43.27742656 74.26252702 44.26233315 75.8125 45.25 C76.80894531 45.87390625 77.80539063 46.4978125 78.83203125 47.140625 C79.54746094 47.75421875 80.26289063 48.3678125 81 49 C81 50.32 81 51.64 81 53 C79.57324219 54.34936523 79.57324219 54.34936523 77.546875 55.55859375 C76.7926123 56.02015869 76.03834961 56.48172363 75.26123047 56.95727539 C74.43252441 57.44574951 73.60381836 57.93422363 72.75 58.4375 C70.99649086 59.50632922 69.24391582 60.57669215 67.4921875 61.6484375 C66.58307617 62.19983398 65.67396484 62.75123047 64.73730469 63.31933594 C60.39604159 65.98480643 56.13655455 68.77199809 51.875 71.5625 C50.20066431 72.65386598 48.52618626 73.74501359 46.8515625 74.8359375 C46.03977539 75.36541992 45.22798828 75.89490234 44.39160156 76.44042969 C34.43306561 82.93441985 24.45720007 89.39115086 14.35058594 95.65307617 C13.73602539 96.03439697 13.12146484 96.41571777 12.48828125 96.80859375 C11.607771 97.35362549 11.607771 97.35362549 10.70947266 97.90966797 C9.0189481 98.98791457 7.37395334 100.13648423 5.73046875 101.28515625 C3 103 3 103 0 103 C0 69.01 0 35.02 0 0 Z " fill="#FBFDFD" transform="translate(68,47)"/>
<path d="M0 0 C3.38838015 0.93721153 5.33949332 1.91548998 7.3125 4.875 C7.84875 5.844375 8.385 6.81375 8.9375 7.8125 C9.32035156 8.38355469 9.70320313 8.95460937 10.09765625 9.54296875 C17.09214585 20.60153488 18.28998864 33.40779268 18.375 46.1875 C18.3850708 47.19248535 18.3951416 48.1974707 18.40551758 49.23291016 C18.39415771 50.17440918 18.38279785 51.1159082 18.37109375 52.0859375 C18.36134521 52.92560059 18.35159668 53.76526367 18.34155273 54.63037109 C17.84187406 57.32893788 17.1772456 58.24655062 14.9375 59.8125 C13.6175 59.8125 12.2975 59.8125 10.9375 59.8125 C10.6075 60.1425 10.2775 60.4725 9.9375 60.8125 C-1.43903359 62.26993495 -13.01702885 61.94308222 -24.4609375 61.91015625 C-26.39148929 61.9082867 -28.32204156 61.90686534 -30.25259399 61.90586853 C-35.28630935 61.90208562 -40.31999497 61.89229241 -45.35369873 61.88116455 C-50.50923256 61.87085859 -55.66477129 61.8663514 -60.8203125 61.86132812 C-70.9010546 61.85066553 -80.98177481 61.83364113 -91.0625 61.8125 C-91.0625 61.4825 -91.0625 61.1525 -91.0625 60.8125 C-82.1525 60.4825 -73.2425 60.1525 -64.0625 59.8125 C-64.0625 57.1725 -64.0625 54.5325 -64.0625 51.8125 C-63.92397423 42.6949858 -63.92397423 42.6949858 -60.5 39.1875 C-59.695625 38.73375 -58.89125 38.28 -58.0625 37.8125 C-59.51699401 38.8180761 -60.97622443 39.81680435 -62.4375 40.8125 C-63.24960938 41.369375 -64.06171875 41.92625 -64.8984375 42.5 C-67.0625 43.8125 -67.0625 43.8125 -69.0625 43.8125 C-69.0625 44.4725 -69.0625 45.1325 -69.0625 45.8125 C-71.0425 46.3075 -71.0425 46.3075 -73.0625 46.8125 C-73.94886343 41.15290539 -74.77845415 35.38386355 -73.0625 29.8125 C-69.85923803 25.55277638 -64.86617244 23.24755364 -60.19775391 20.89892578 C-57.44979804 19.50075478 -54.81058723 17.94397777 -52.15893555 16.37280273 C-49.48274639 14.81321825 -46.76885485 13.31913054 -44.0625 11.8125 C-43.4025 16.4325 -42.7425 21.0525 -42.0625 25.8125 C-22.95489146 14.30359111 -22.95489146 14.30359111 -5.00488281 1.12670898 C-3.0625 -0.1875 -3.0625 -0.1875 0 0 Z " fill="#3186D5" transform="translate(141.0625,121.1875)"/>
<path d="M0 0 C1.88591957 -0.36914349 1.88591957 -0.36914349 4.22671509 -0.36076355 C5.11295059 -0.36488754 5.9991861 -0.36901154 6.91227722 -0.3732605 C7.88691422 -0.36247467 8.86155121 -0.35168884 9.86572266 -0.34057617 C11.4023481 -0.34123329 11.4023481 -0.34123329 12.97001648 -0.34190369 C16.36822331 -0.33980766 19.76594148 -0.31643798 23.1640625 -0.29296875 C25.51532725 -0.2873757 27.8665955 -0.28310423 30.21786499 -0.28010559 C36.41578776 -0.26863397 42.61350066 -0.23914676 48.81134033 -0.20599365 C55.1320105 -0.17534271 61.45271448 -0.1616109 67.7734375 -0.14648438 C80.18238403 -0.11427937 92.59117459 -0.06305501 105 0 C105 0.33 105 0.66 105 1 C86.52 1.33 68.04 1.66 49 2 C48.67 3.98 48.34 5.96 48 8 C48.66 8 49.32 8 50 8 C50.99801362 10.99404085 51.04454917 12.70807395 50.9375 15.8125 C50.84954734 26.8945353 52.06928749 40.29904883 58 50 C59.485 50.495 59.485 50.495 61 51 C61.33 51.99 61.66 52.98 62 54 C58.02346892 52.55129247 54.62462185 50.64963894 51.04296875 48.40234375 C49.88855863 47.68204954 48.73409733 46.96183735 47.57958984 46.24169922 C46.98885681 45.87131531 46.39812378 45.5009314 45.78948975 45.11932373 C42.9065419 43.31604324 40.00946192 41.53582547 37.11328125 39.75390625 C30.3125 35.5625 30.3125 35.5625 28.54516602 34.47192383 C26.83918414 33.41930677 25.13249455 32.36783696 23.42578125 31.31640625 C22.42973877 30.70224854 21.43369629 30.08809082 20.4074707 29.45532227 C18.10042791 28.01688458 18.10042791 28.01688458 16 27 C15.67 43.17 15.34 59.34 15 76 C14.67 76 14.34 76 14 76 C13.505 72.04 13.505 72.04 13 68 C11.68 67.67 10.36 67.34 9 67 C9 72.61 9 78.22 9 84 C8.34 84 7.68 84 7 84 C6.67 76.74 6.34 69.48 6 62 C5.01 62 4.02 62 3 62 C2.67 67.94 2.34 73.88 2 80 C1.34 79.67 0.68 79.34 0 79 C-0.33 73.06 -0.66 67.12 -1 61 C-2.32 61 -3.64 61 -5 61 C-5 66.28 -5 71.56 -5 77 C-5.66 76.67 -6.32 76.34 -7 76 C-7.40729228 73.67843403 -7.74438677 71.3431213 -8 69 C-8.99 69 -9.98 69 -11 69 C-11.33 71.31 -11.66 73.62 -12 76 C-12.33 76 -12.66 76 -13 76 C-13 72.04 -13 68.08 -13 64 C-14.98 64.495 -14.98 64.495 -17 65 C-17.33 69.29 -17.66 73.58 -18 78 C-18.33 78 -18.66 78 -19 78 C-19 72.39 -19 66.78 -19 61 C-11.06358102 58.49376243 -4.30633295 57.60860211 4 58 C3.88501733 55.79112243 3.75756495 53.58289213 3.625 51.375 C3.55539063 50.14523438 3.48578125 48.91546875 3.4140625 47.6484375 C3.13874255 44.09121497 3.13874255 44.09121497 2.0625 41.19921875 C0.56410815 36.68751682 0.00015009 32.13992456 -0.625 27.4375 C-0.75543701 26.46256592 -0.88587402 25.48763184 -1.02026367 24.4831543 C-3.47083854 5.20625781 -3.47083854 5.20625781 0 0 Z " fill="#2870C1" transform="translate(52,20)"/>
<path d="M0 0 C1.32 0.33 2.64 0.66 4 1 C4 7.27 4 13.54 4 20 C4.66 20 5.32 20 6 20 C6 15.71 6 11.42 6 7 C7.65 6.67 9.3 6.34 11 6 C11.33 7.65 11.66 9.3 12 11 C12.639375 10.814375 13.27875 10.62875 13.9375 10.4375 C14.618125 10.293125 15.29875 10.14875 16 10 C17 11 17 11 18 18 C18.33 13.05 18.66 8.1 19 3 C20.32 2.67 21.64 2.34 23 2 C24.51421001 3.51421001 24.21309856 4.92472768 24.31640625 7.03515625 C24.35830078 7.84404297 24.40019531 8.65292969 24.44335938 9.48632812 C24.48267578 10.33646484 24.52199219 11.18660156 24.5625 12.0625 C24.60568359 12.91650391 24.64886719 13.77050781 24.69335938 14.65039062 C24.79976702 16.76672037 24.90041731 18.88333813 25 21 C25.33 15.39 25.66 9.78 26 4 C26.33 4 26.66 4 27 4 C27 13.57 27 23.14 27 33 C28.65 32.34 30.3 31.68 32 31 C32.495 29.515 32.495 29.515 33 28 C34.98 28 36.96 28 39 28 C39 39.22 39 50.44 39 62 C38.67 62 38.34 62 38 62 C37.80286762 59.813347 37.61775092 57.62560925 37.4375 55.4375 C37.28087891 53.61025391 37.28087891 53.61025391 37.12109375 51.74609375 C37.00069256 48.02142476 37.36329725 44.66457804 38 41 C19.00374324 38.12877091 3.30528529 39.28465325 -15 46 C-16.0176403 51.01608525 -16.11856434 55.78608306 -16.0625 60.875 C-16.05798828 61.65875 -16.05347656 62.4425 -16.04882812 63.25 C-16.03714093 65.16670014 -16.01920908 67.08336048 -16 69 C-16.33 69 -16.66 69 -17 69 C-17.97058832 63.33431663 -18.13123058 57.87005197 -18.09765625 52.12890625 C-18.0962413 51.206577 -18.09482635 50.28424774 -18.09336853 49.33396912 C-18.08780506 46.41011202 -18.07525942 43.48633365 -18.0625 40.5625 C-18.05748028 38.57096465 -18.0529182 36.5794281 -18.04882812 34.58789062 C-18.03784762 29.72523044 -18.02060839 24.86262853 -18 20 C-17.34 20 -16.68 20 -16 20 C-15.34 18.02 -14.68 16.04 -14 14 C-12.68 14.33 -11.36 14.66 -10 15 C-9.67 16.32 -9.34 17.64 -9 19 C-8.67 16.36 -8.34 13.72 -8 11 C-6.0625 10.4375 -6.0625 10.4375 -4 10 C-2.18884044 11.81115956 -2.61800552 14.61278227 -2.4375 17.0625 C-2.35371094 18.16722656 -2.26992188 19.27195312 -2.18359375 20.41015625 C-2.12300781 21.26480469 -2.06242187 22.11945313 -2 23 C-1.97494385 22.3387915 -1.9498877 21.67758301 -1.92407227 20.99633789 C-1.80846898 18.01817695 -1.68558246 15.0403608 -1.5625 12.0625 C-1.52318359 11.02158203 -1.48386719 9.98066406 -1.44335938 8.90820312 C-1.40146484 7.91884766 -1.35957031 6.92949219 -1.31640625 5.91015625 C-1.27974854 4.99371338 -1.24309082 4.07727051 -1.20532227 3.13305664 C-1 1 -1 1 0 0 Z " fill="#3991DD" transform="translate(28,78)"/>
<path d="M0 0 C27.06 0 54.12 0 82 0 C82 0.33 82 0.66 82 1 C63.52 1.33 45.04 1.66 26 2 C25.67 3.98 25.34 5.96 25 8 C25.66 8 26.32 8 27 8 C27.99801362 10.99404085 28.04454917 12.70807395 27.9375 15.8125 C27.84954734 26.8945353 29.06928749 40.29904883 35 50 C35.99 50.33 36.98 50.66 38 51 C38.33 51.99 38.66 52.98 39 54 C35.23848964 52.6148951 32.0134987 50.88521836 28.625 48.75 C27.50996094 48.05390625 26.39492187 47.3578125 25.24609375 46.640625 C24.59882324 46.23650391 23.95155273 45.83238281 23.28466797 45.41601562 C18.43838818 42.41233719 13.55980297 39.46120024 8.6875 36.5 C6.64972764 35.2604363 4.61196633 34.02085444 2.57421875 32.78125 C1.04950624 31.85412215 -0.47522249 30.92702095 -2 30 C-1.34 29.67 -0.68 29.34 0 29 C0 19.43 0 9.86 0 0 Z " fill="#3891DD" transform="translate(75,20)"/>
<path d="M0 0 C0.33 0 0.66 0 1 0 C1.495 11.88 1.495 11.88 2 24 C2.99 24.33 3.98 24.66 5 25 C5 25.66 5 26.32 5 27 C3.68 27 2.36 27 1 27 C-1 24 -1 24 -1 20 C-8.03156136 23.92687545 -14.69047043 28.08764131 -21.15234375 32.89453125 C-29.08266268 38.75796322 -37.26157385 44.25470373 -45.6171875 49.4921875 C-47.63176308 50.76698451 -49.60147625 52.08278311 -51.5625 53.4375 C-54 55 -54 55 -56 55 C-59.05745642 45.6365397 -59.05745642 45.6365397 -58 41 C-54.72650424 37.77375057 -50.88406934 35.418667 -47 33 C-45.7681279 32.21890968 -44.53636033 31.4376545 -43.3046875 30.65625 C-40.63921906 28.97599183 -37.96326042 27.31386223 -35.28125 25.66015625 C-30.77436006 22.87360463 -26.32076782 20.00781015 -21.875 17.125 C-21.17681152 16.67278076 -20.47862305 16.22056152 -19.75927734 15.75463867 C-19.0936377 15.32256104 -18.42799805 14.8904834 -17.7421875 14.4453125 C-17.10893555 14.03442383 -16.47568359 13.62353516 -15.82324219 13.20019531 C-14.62283729 12.40999841 -13.43043247 11.60749023 -12.24707031 10.79199219 C-8.1951273 8 -8.1951273 8 -6 8 C-5.67 6.68 -5.34 5.36 -5 4 C-4.505 10.435 -4.505 10.435 -4 17 C-3.01 17 -2.02 17 -1 17 C-0.67 11.39 -0.34 5.78 0 0 Z " fill="#144EA0" transform="translate(155,92)"/>
<path d="M0 0 C1.06760559 -0.00335861 2.13521118 -0.00671722 3.23516846 -0.01017761 C6.75273818 -0.01965038 10.27026012 -0.02162888 13.7878418 -0.02270508 C16.24252848 -0.02592019 18.69721496 -0.02928446 21.15190125 -0.03279114 C26.29381759 -0.03877321 31.43571714 -0.04063198 36.57763672 -0.04003906 C43.15117685 -0.03993749 49.72460884 -0.05358886 56.29812336 -0.07081127 C61.36747223 -0.08195519 66.43679515 -0.08395753 71.50615501 -0.08342934 C73.92893026 -0.08460587 76.35170625 -0.08900925 78.77446938 -0.0967617 C82.17003479 -0.10660986 85.56536797 -0.10366444 88.9609375 -0.09765625 C89.9519194 -0.10327576 90.94290131 -0.10889526 91.96391296 -0.11468506 C98.25168918 -0.08655584 104.05930895 0.68246341 110.17456055 2.14526367 C110.17456055 2.47526367 110.17456055 2.80526367 110.17456055 3.14526367 C109.44626541 3.07420914 108.71797028 3.0031546 107.96760559 2.9299469 C98.3162075 2.07935737 88.74279276 2.01607213 79.0612793 2.04760742 C77.35350079 2.04947727 75.64572174 2.05089849 73.9379425 2.05189514 C69.48782822 2.05567575 65.03774764 2.06546685 60.58764648 2.07659912 C56.02873185 2.08691017 51.46981166 2.09141333 46.91088867 2.09643555 C37.99876465 2.10709406 29.08666543 2.12411551 20.17456055 2.14526367 C21.16456055 3.63026367 21.16456055 3.63026367 22.17456055 5.14526367 C21.39443604 5.16508301 20.61431152 5.18490234 19.81054688 5.20532227 C16.20243585 5.30183717 12.59480695 5.41099321 8.98706055 5.52026367 C7.14724609 5.56666992 7.14724609 5.56666992 5.27026367 5.61401367 C-10.70009263 5.9713021 -10.70009263 5.9713021 -25.51293945 11.27026367 C-30.70582223 14.14526367 -30.70582223 14.14526367 -32.82543945 14.14526367 C-33.10645508 14.73178711 -33.3874707 15.31831055 -33.67700195 15.92260742 C-34.73588387 17.97194011 -35.90754438 19.80136107 -37.20043945 21.70776367 C-43.52579216 31.89549989 -44.8313345 42.45708143 -45.82543945 54.14526367 C-45.93758789 55.45881836 -46.04973633 56.77237305 -46.1652832 58.12573242 C-46.40455294 61.13135365 -46.62661496 64.13673514 -46.82543945 67.14526367 C-47.81543945 67.14526367 -48.80543945 67.14526367 -49.82543945 67.14526367 C-49.70607237 73.93653338 -49.58132207 80.72769013 -49.453125 87.51879883 C-49.41026833 89.82086032 -49.36856783 92.12294367 -49.328125 94.42504883 C-49.03917711 110.88785504 -49.03917711 110.88785504 -48.4152832 127.34057617 C-48.37220787 128.38953568 -48.37220787 128.38953568 -48.32826233 129.45968628 C-48.03938568 134.73744189 -47.69067256 140.28003056 -43.82543945 144.14526367 C-43.55731445 145.21776367 -43.28918945 146.29026367 -43.01293945 147.39526367 C-41.60595556 151.8383707 -40.00769531 153.80389502 -36.82543945 157.14526367 C-36.16543945 157.47526367 -35.50543945 157.80526367 -34.82543945 158.14526367 C-34.82543945 158.80526367 -34.82543945 159.46526367 -34.82543945 160.14526367 C-34.16543945 160.14526367 -33.50543945 160.14526367 -32.82543945 160.14526367 C-32.49543945 161.13526367 -32.16543945 162.12526367 -31.82543945 163.14526367 C-40.1763463 159.53707675 -44.5671766 151.51108496 -47.81762695 143.43041992 C-50.12714847 135.90209592 -51.12426236 128.61160268 -51.10009766 120.75512695 C-51.10520859 119.87561371 -51.11031952 118.99610046 -51.11558533 118.0899353 C-51.12935699 115.21507751 -51.12853399 112.3404628 -51.1262207 109.46557617 C-51.13011444 107.44595248 -51.13445049 105.42632961 -51.13920593 103.40670776 C-51.14664145 99.18558084 -51.14639627 94.96453759 -51.14111328 90.7434082 C-51.13532212 85.36168831 -51.15225433 79.98031297 -51.17545795 74.59864998 C-51.19026292 70.43079663 -51.19105783 66.26302498 -51.18794823 62.09514999 C-51.18845804 60.11222527 -51.19363111 58.12929556 -51.20376015 56.14639664 C-51.28132763 38.84005247 -49.93828568 24.19687823 -37.70043945 10.93041992 C-27.34564241 1.07179024 -13.61207255 -0.00618702 0 0 Z " fill="#1B529B" transform="translate(55.825439453125,13.854736328125)"/>
<path d="M0 0 C0.33 0 0.66 0 1 0 C2.04985072 9.06104942 2.16347148 18.08281094 2.16796875 27.19140625 C2.1711932 28.74682138 2.1745581 30.30223622 2.17805481 31.85765076 C2.18400867 35.10603537 2.18589871 38.35439353 2.18530273 41.6027832 C2.18520161 45.7114828 2.19881959 49.82000768 2.21607494 53.92866611 C2.22734208 57.1402612 2.22921746 60.35181608 2.22869301 63.56342888 C2.22985245 65.07528214 2.23415547 66.58713719 2.24202538 68.09897041 C2.28097913 76.35777007 1.9829269 84.48402228 1.0871582 92.69897461 C1.00643916 93.44163606 0.92572012 94.1842975 0.84255505 94.94946384 C-0.64437805 107.4256822 -5.93322289 118.48999044 -15.9375 126.4375 C-30.88359564 136.50797609 -47.63418334 135.27759263 -64.921875 135.1953125 C-67.2364286 135.19157676 -69.5509838 135.18873244 -71.86553955 135.18673706 C-77.92187966 135.17914478 -83.97812202 135.15953461 -90.03442383 135.1373291 C-96.22866494 135.11677524 -102.42292203 135.10771504 -108.6171875 135.09765625 C-120.74483433 135.07628417 -132.872409 135.04220206 -145 135 C-145 134.67 -145 134.34 -145 134 C-118.93 133.67 -92.86 133.34 -66 133 C-66 132.67 -66 132.34 -66 132 C-65.31075439 131.9906543 -64.62150879 131.98130859 -63.91137695 131.97167969 C-39.44958971 132.0389807 -39.44958971 132.0389807 -19 120 C-5.8390465 106.22800223 -3.83079008 87.97290568 -2.8125 69.625 C-2.73078743 68.29160689 -2.64810881 66.95827262 -2.56445312 65.625 C-2.3668657 62.41710997 -2.17884748 59.20897981 -2 56 C-1.01 56 -0.02 56 1 56 C0.67 37.52 0.34 19.04 0 0 Z " fill="#184D97" transform="translate(193,51)"/>
<path d="M0 0 C0.33 0 0.66 0 1 0 C1 7.26 1 14.52 1 22 C0.34 21.67 -0.32 21.34 -1 21 C-1.4140625 18.27734375 -1.4140625 18.27734375 -1.625 14.9375 C-1.69976563 13.83277344 -1.77453125 12.72804688 -1.8515625 11.58984375 C-1.90054687 10.73519531 -1.94953125 9.88054687 -2 9 C-2.99 9 -3.98 9 -5 9 C-5.12375 10.299375 -5.2475 11.59875 -5.375 12.9375 C-5.5859375 15.15234375 -5.5859375 15.15234375 -6 17 C-6.66 17.33 -7.32 17.66 -8 18 C-8.33 16.35 -8.66 14.7 -9 13 C-9.99 13 -10.98 13 -12 13 C-12.33 15.31 -12.66 17.62 -13 20 C-13.33 19.34 -13.66 18.68 -14 18 C-14.66 18 -15.32 18 -16 18 C-15.90579467 23.79860613 -15.79955874 29.59682728 -15.68261719 35.39501953 C-15.64455305 37.36370967 -15.60966268 39.33246403 -15.578125 41.30126953 C-15.5319801 44.14639091 -15.47407219 46.99107867 -15.4140625 49.8359375 C-15.39673569 51.13656631 -15.39673569 51.13656631 -15.37905884 52.46347046 C-15.03121751 67.17065302 -10.86418842 79.87431679 -1 91 C8.34836153 99.13560111 19.59847127 102.10519149 31.74951172 102.20532227 C32.87736336 102.22017166 32.87736336 102.22017166 34.02799988 102.23532104 C36.49519786 102.26672395 38.96241504 102.2916089 41.4296875 102.31640625 C43.14747599 102.33699413 44.86525962 102.35799107 46.58303833 102.37937927 C51.09073945 102.4344106 55.59848485 102.48390292 60.10626221 102.53222656 C64.71150627 102.5825804 69.31668651 102.6381938 73.921875 102.69335938 C82.94786207 102.80070908 91.9739047 102.90220496 101 103 C101.33 103.66 101.66 104.32 102 105 C90.71627402 105.09297124 79.43264024 105.16390223 68.14860821 105.20724869 C62.90809721 105.2280603 57.66784966 105.25625986 52.42749023 105.30175781 C47.36352283 105.34544559 42.2998077 105.36918536 37.23566628 105.37950897 C35.31049444 105.38685936 33.38533531 105.4012123 31.46027184 105.42292023 C18.98400945 105.55792263 8.74015566 105.11398045 -2 98 C-2.8125 95.8125 -2.8125 95.8125 -3 94 C-3.66 94 -4.32 94 -5 94 C-5 93.34 -5 92.68 -5 92 C-5.8353125 91.7215625 -5.8353125 91.7215625 -6.6875 91.4375 C-11.92897309 88.179287 -14.35147445 82.76983942 -16 77 C-16.50917969 75.81277344 -17.01835937 74.62554687 -17.54296875 73.40234375 C-19.3157431 68.71876405 -19.34487697 64.45535703 -19.1875 59.5 C-19.17396484 58.67757812 -19.16042969 57.85515625 -19.14648438 57.0078125 C-19.11155016 55.00491779 -19.05776057 53.00236644 -19 51 C-18.34 51 -17.68 51 -17 51 C-17 37.47 -17 23.94 -17 10 C-4.625 5.5 -4.625 5.5 0 5 C0 3.35 0 1.7 0 0 Z " fill="#2373C5" transform="translate(26,80)"/>
<path d="M0 0 C1.98 0.495 1.98 0.495 4 1 C4 7.27 4 13.54 4 20 C4.66 20 5.32 20 6 20 C6 15.71 6 11.42 6 7 C7.65 6.67 9.3 6.34 11 6 C11.33 7.65 11.66 9.3 12 11 C12.639375 10.814375 13.27875 10.62875 13.9375 10.4375 C14.618125 10.293125 15.29875 10.14875 16 10 C17 11 17 11 18 18 C18.33 13.05 18.66 8.1 19 3 C20.32 2.67 21.64 2.34 23 2 C24.82595254 3.82595254 24.130419 6.7012322 24.1328125 9.15234375 C24.13474609 11.02889648 24.13474609 11.02889648 24.13671875 12.94335938 C24.13285156 14.26142578 24.12898438 15.57949219 24.125 16.9375 C24.13080078 18.90879883 24.13080078 18.90879883 24.13671875 20.91992188 C24.13542969 22.17224609 24.13414063 23.42457031 24.1328125 24.71484375 C24.13168457 25.87105225 24.13055664 27.02726074 24.12939453 28.21850586 C24 31 24 31 23 33 C21.02 32.67 19.04 32.34 17 32 C17.33 30.68 17.66 29.36 18 28 C15.06556598 28.26656572 15.06556598 28.26656572 12 29 C11.34 29.99 10.68 30.98 10 32 C6.10834729 33.36928521 3.14156548 34 -1 34 C-1.02465288 29.31860746 -1.04283739 24.63725241 -1.05493164 19.95581055 C-1.05997157 18.36205386 -1.0668035 16.76830181 -1.07543945 15.17456055 C-1.08751999 12.88849747 -1.09323155 10.60249533 -1.09765625 8.31640625 C-1.10281754 7.59973282 -1.10797882 6.88305939 -1.11329651 6.14466858 C-1.11349263 4.42936328 -1.06192007 2.71418734 -1 1 C-0.67 0.67 -0.34 0.34 0 0 Z " fill="#639ED4" transform="translate(28,78)"/>
<path d="M0 0 C0.19916016 1.24716797 0.19916016 1.24716797 0.40234375 2.51953125 C0.57894531 3.60621094 0.75554687 4.69289062 0.9375 5.8125 C1.11152344 6.89144531 1.28554687 7.97039062 1.46484375 9.08203125 C1.93871921 12.04933356 1.93871921 12.04933356 3 15 C0 17 0 17 -3 17 C-3 17.66 -3 18.32 -3 19 C-4.40527344 20.09741211 -4.40527344 20.09741211 -6.359375 21.27734375 C-7.41511719 21.92413086 -7.41511719 21.92413086 -8.4921875 22.58398438 C-9.23726562 23.03064453 -9.98234375 23.47730469 -10.75 23.9375 C-12.2041136 24.81998767 -13.65726785 25.70405839 -15.109375 26.58984375 C-16.13321289 27.21221924 -16.13321289 27.21221924 -17.17773438 27.84716797 C-19.1367251 29.05010766 -19.1367251 29.05010766 -21.390625 30.81640625 C-23 32 -23 32 -25 32 C-25 32.66 -25 33.32 -25 34 C-26.98 34.495 -26.98 34.495 -29 35 C-29.88579207 29.34405359 -30.72582013 23.56570541 -29 18 C-25.76435141 13.75211641 -20.75430048 11.4568617 -16.08349609 9.08642578 C-12.80727258 7.37805988 -9.73684082 5.36193003 -6.625 3.375 C-1.14229249 0 -1.14229249 0 0 0 Z " fill="#1D63B6" transform="translate(97,133)"/>
<path d="M0 0 C3.96 0 7.92 0 12 0 C12 9.57 12 19.14 12 29 C7 28 7 28 5 27 C5 31.29 5 35.58 5 40 C3.68 40 2.36 40 1 40 C-3.46462036 13.32310178 -3.46462036 13.32310178 -1 1 C-0.67 0.67 -0.34 0.34 0 0 Z " fill="#2877C8" transform="translate(63,20)"/>
<path d="M0 0 C0.33 0 0.66 0 1 0 C1 9.57 1 19.14 1 29 C2.65 28.34 4.3 27.68 6 27 C6.33 26.01 6.66 25.02 7 24 C8.98 24 10.96 24 13 24 C13 35.22 13 46.44 13 58 C12.67 58 12.34 58 12 58 C11.80286762 55.813347 11.61775092 53.62560925 11.4375 51.4375 C11.28087891 49.61025391 11.28087891 49.61025391 11.12109375 47.74609375 C11.00069256 44.02142476 11.36329725 40.66457804 12 37 C-0.62786456 35.09133491 -12.26253595 34.62031337 -25 36 C-23.85827887 33.19991298 -22.67165622 30.52629718 -21 28 C-18.375 27.1875 -18.375 27.1875 -16 27 C-15.34 26.01 -14.68 25.02 -14 24 C-10.875 23.8125 -10.875 23.8125 -8 24 C-7.67 25.32 -7.34 26.64 -7 28 C-5.68 28.33 -4.36 28.66 -3 29 C-2.67 25.04 -2.34 21.08 -2 17 C-1.67 17 -1.34 17 -1 17 C-0.67 11.39 -0.34 5.78 0 0 Z " fill="#3D92DA" transform="translate(54,82)"/>
<path d="M0 0 C3.63 0 7.26 0 11 0 C10.98839844 1.67707031 10.97679688 3.35414062 10.96484375 5.08203125 C10.95545677 7.32551971 10.94635755 9.56900939 10.9375 11.8125 C10.92912109 12.91271484 10.92074219 14.01292969 10.91210938 15.14648438 C10.89142843 22.15732634 11.22322023 29.03175126 12 36 C6.29370646 35.57202798 2.58921384 33.15654048 -2 30 C-1.34 29.67 -0.68 29.34 0 29 C0 19.43 0 9.86 0 0 Z " fill="#3385D3" transform="translate(75,20)"/>
<path d="M0 0 C0.33 0 0.66 0 1 0 C1 29.7 1 59.4 1 90 C1.66 90.33 2.32 90.66 3 91 C2.01 91 1.02 91 0 91 C0 76.15 0 61.3 0 46 C-1.98 46 -3.96 46 -6 46 C-6.33 47.32 -6.66 48.64 -7 50 C-9.475 50.495 -9.475 50.495 -12 51 C-12 41.1 -12 31.2 -12 21 C-10.68 21.33 -9.36 21.66 -8 22 C-8 29.26 -8 36.52 -8 44 C-7.34 44 -6.68 44 -6 44 C-6 38.39 -6 32.78 -6 27 C-4.35 27.33 -2.7 27.66 -1 28 C-0.67 18.76 -0.34 9.52 0 0 Z " fill="#72AADD" transform="translate(67,60)"/>
<path d="M0 0 C0.95712891 0.32484375 0.95712891 0.32484375 1.93359375 0.65625 C2.75988281 0.9346875 3.58617187 1.213125 4.4375 1.5 C5.26121094 1.7784375 6.08492187 2.056875 6.93359375 2.34375 C8.79749696 3.05044718 8.79749696 3.05044718 10 3 C13.28847322 3.49327098 16.40506024 4.11365019 19.61108398 5.01318359 C27.17365499 6.69451961 35.01303577 6.36061875 42.72265625 6.4140625 C44.43616137 6.43279827 46.1496575 6.45237343 47.86314392 6.4727478 C52.34612702 6.52382074 56.82913994 6.5635785 61.31225586 6.60089111 C65.89769723 6.6410875 70.48301718 6.69210809 75.06835938 6.7421875 C84.04548731 6.83865222 93.0226842 6.92315015 102 7 C102.495 7.99 102.495 7.99 103 9 C91.71627402 9.09297124 80.43264024 9.16390223 69.14860821 9.20724869 C63.90809721 9.2280603 58.66784966 9.25625986 53.42749023 9.30175781 C48.36352283 9.34544559 43.2998077 9.36918536 38.23566628 9.37950897 C36.31049444 9.38685936 34.38533531 9.4012123 32.46027184 9.42292023 C19.74292575 9.56053134 10.07944137 8.82335218 -1 2 C-0.67 1.34 -0.34 0.68 0 0 Z " fill="#1E6ABB" transform="translate(25,176)"/>
<path d="M0 0 C0 0.66 0 1.32 0 2 C-0.66 2 -1.32 2 -2 2 C-1.34 6.62 -0.68 11.24 0 16 C-7.75 22 -7.75 22 -10 22 C-10 22.66 -10 23.32 -10 24 C-11.32 24.33 -12.64 24.66 -14 25 C-15.43982854 13.26806376 -15.43982854 13.26806376 -14 8 C-10.53504895 4.12404125 -5.47118429 0 0 0 Z " fill="#2879C9" transform="translate(82,143)"/>
<path d="M0 0 C0.99 0 1.98 0 3 0 C3 5.28 3 10.56 3 16 C1.68 16.33 0.36 16.66 -1 17 C0.98 17 2.96 17 5 17 C5 18.65 5 20.3 5 22 C1.37 22.66 -2.26 23.32 -6 24 C-6 21.36 -6 18.72 -6 16 C-7.32 15.67 -8.64 15.34 -10 15 C-10.33 13.35 -10.66 11.7 -11 10 C-10.34 10 -9.68 10 -9 10 C-8.34 8.02 -7.68 6.04 -7 4 C-5.68 4.33 -4.36 4.66 -3 5 C-2.67 6.32 -2.34 7.64 -2 9 C-1.855625 7.700625 -1.71125 6.40125 -1.5625 5.0625 C-1.125 1.125 -1.125 1.125 0 0 Z " fill="#3285D2" transform="translate(21,88)"/>
<path d="M0 0 C1.98 0.495 1.98 0.495 4 1 C4 13.87 4 26.74 4 40 C2.02 40.495 2.02 40.495 0 41 C-1.86962718 39.13037282 -1.12886303 36.45336439 -1.13894653 33.96618652 C-1.1369223 33.12140747 -1.13489807 32.27662842 -1.1328125 31.40625 C-1.13376923 30.54439087 -1.13472595 29.68253174 -1.13571167 28.79455566 C-1.1363935 26.96866788 -1.13453904 25.14277769 -1.13037109 23.31689453 C-1.12502286 20.51198922 -1.13031599 17.70724405 -1.13671875 14.90234375 C-1.13605797 13.13281214 -1.13477681 11.36328064 -1.1328125 9.59375 C-1.13483673 8.74897095 -1.13686096 7.90419189 -1.13894653 7.03381348 C-1.11495031 1.11495031 -1.11495031 1.11495031 0 0 Z " fill="#B4D4F0" transform="translate(157,76)"/>
<path d="M0 0 C0 8.58 0 17.16 0 26 C-1.98 26.99 -1.98 26.99 -4 28 C-5.32 29.32 -6.64 30.64 -8 32 C-8 22.43 -8 12.86 -8 3 C-7.34 2.67 -6.68 2.34 -6 2 C-6 7.94 -6 13.88 -6 20 C-4.68 20 -3.36 20 -2 20 C-2.1404983 17.2079699 -2.28715383 14.41650204 -2.4375 11.625 C-2.47681641 10.8309375 -2.51613281 10.036875 -2.55664062 9.21875 C-2.68893404 4.97398779 -2.68893404 4.97398779 -4 1 C-2 0 -2 0 0 0 Z " fill="#386DA7" transform="translate(169,84)"/>
<path d="M0 0 C1.65 0.33 3.3 0.66 5 1 C5 1.66 5 2.32 5 3 C6.65 3 8.3 3 10 3 C10 6.3 10 9.6 10 13 C8.68 13 7.36 13 6 13 C5.67 10.36 5.34 7.72 5 5 C4.67 8.63 4.34 12.26 4 16 C2.68 16.33 1.36 16.66 0 17 C-1 16 -1 16 -1.1328125 13.1640625 C-1.13023437 11.99617188 -1.12765625 10.82828125 -1.125 9.625 C-1.12757813 8.46226563 -1.13015625 7.29953125 -1.1328125 6.1015625 C-1 3 -1 3 0 0 Z " fill="#6FABDE" transform="translate(176,87)"/>
<path d="M0 0 C0.33 0 0.66 0 1 0 C1 7.26 1 14.52 1 22 C0.34 21.67 -0.32 21.34 -1 21 C-1.4140625 18.27734375 -1.4140625 18.27734375 -1.625 14.9375 C-1.69976562 13.83277344 -1.77453125 12.72804688 -1.8515625 11.58984375 C-1.90054687 10.73519531 -1.94953125 9.88054687 -2 9 C-2.99 9 -3.98 9 -5 9 C-5.12375 10.299375 -5.2475 11.59875 -5.375 12.9375 C-5.5859375 15.15234375 -5.5859375 15.15234375 -6 17 C-6.66 17.33 -7.32 17.66 -8 18 C-8.33 16.35 -8.66 14.7 -9 13 C-10.65 12.67 -12.3 12.34 -14 12 C-14.12375 12.639375 -14.2475 13.27875 -14.375 13.9375 C-14.58125 14.618125 -14.7875 15.29875 -15 16 C-15.66 16.33 -16.32 16.66 -17 17 C-17 14.69 -17 12.38 -17 10 C-5.47835991 5.59225513 -5.47835991 5.59225513 0 5 C0 3.35 0 1.7 0 0 Z " fill="#296EB8" transform="translate(26,80)"/>
<path d="M0 0 C0.99 0.33 1.98 0.66 3 1 C3 10.24 3 19.48 3 29 C1.68 29 0.36 29 -1 29 C-1.02465881 25.03069011 -1.04284023 21.06140966 -1.05493164 17.09204102 C-1.05997057 15.74079614 -1.06680177 14.38955674 -1.07543945 13.03833008 C-1.08752419 11.09979566 -1.09269828 9.161222 -1.09765625 7.22265625 C-1.10289307 6.05484619 -1.10812988 4.88703613 -1.11352539 3.68383789 C-1 1 -1 1 0 0 Z " fill="#E4F5FE" transform="translate(49,80)"/>
<path d="M0 0 C1.32 0 2.64 0 4 0 C4 9.24 4 18.48 4 28 C2.68 28.33 1.36 28.66 0 29 C0 19.43 0 9.86 0 0 Z " fill="#E2F5FE" transform="translate(169,82)"/>
<path d="M0 0 C1.98 0.99 1.98 0.99 4 2 C3.01 2.495 3.01 2.495 2 3 C1.67 35.67 1.34 68.34 1 102 C1.66 102.33 2.32 102.66 3 103 C2.01 103 1.02 103 0 103 C0 69.01 0 35.02 0 0 Z " fill="#D7F0FE" transform="translate(68,47)"/>
<path d="M0 0 C2.475 0.99 2.475 0.99 5 2 C5 2.66 5 3.32 5 4 C6.32 4 7.64 4 9 4 C9.66 3.34 10.32 2.68 11 2 C11 3.32 11 4.64 11 6 C11.66 6 12.32 6 13 6 C13.66 5.01 14.32 4.02 15 3 C15 6.63 15 10.26 15 14 C11.71948224 12.68779289 9.15606285 11.61673391 6.23046875 9.8359375 C5.56982422 9.43632813 4.90917969 9.03671875 4.22851562 8.625 C3.55498047 8.2125 2.88144531 7.8 2.1875 7.375 C1.49462891 6.95476562 0.80175781 6.53453125 0.08789062 6.1015625 C-1.61010748 5.0710533 -3.30533614 4.03598319 -5 3 C-4.360625 2.690625 -3.72125 2.38125 -3.0625 2.0625 C-1.06389179 1.1654837 -1.06389179 1.1654837 0 0 Z " fill="#49A0E4" transform="translate(135,82)"/>
<path d="M0 0 C0.33 0 0.66 0 1 0 C1.33 7.92 1.66 15.84 2 24 C2.99 24.33 3.98 24.66 5 25 C5 25.66 5 26.32 5 27 C3.68 27 2.36 27 1 27 C0.608125 25.88625 0.21625 24.7725 -0.1875 23.625 C-1.42482967 20.68039334 -1.73606497 20.14117455 -4.6875 18.5625 C-5.450625 18.376875 -6.21375 18.19125 -7 18 C-7 17.34 -7 16.68 -7 16 C-9.64 15.67 -12.28 15.34 -15 15 C-13.6581656 10.97449681 -11.5772427 10.11714364 -8 8 C-7.34 8 -6.68 8 -6 8 C-5.67 6.68 -5.34 5.36 -5 4 C-4.67 8.29 -4.34 12.58 -4 17 C-3.01 17 -2.02 17 -1 17 C-0.67 11.39 -0.34 5.78 0 0 Z " fill="#245598" transform="translate(155,92)"/>
<path d="M0 0 C1.32 0 2.64 0 4 0 C4 8.58 4 17.16 4 26 C2.68 25.67 1.36 25.34 0 25 C0 16.75 0 8.5 0 0 Z " fill="#DFF1F9" transform="translate(150,84)"/>
<path d="M0 0 C0.33 0.66 0.66 1.32 1 2 C2.97888961 2.72693904 4.97954558 3.39816251 7 4 C7.33 5.65 7.66 7.3 8 9 C5.525 8.01 5.525 8.01 3 7 C3 11.29 3 15.58 3 20 C1.68 20 0.36 20 -1 20 C-2.05409871 14.07069473 -2.5881975 8.01157788 -2 2 C-1.34 1.34 -0.68 0.68 0 0 Z " fill="#2C77C1" transform="translate(65,40)"/>
<path d="M0 0 C0.99 0 1.98 0 3 0 C3 10.56 3 21.12 3 32 C2.01 32 1.02 32 0 32 C0 21.44 0 10.88 0 0 Z " fill="#F0FDFE" transform="translate(28,80)"/>
<path d="M0 0 C0.99 0.33 1.98 0.66 3 1 C3 8.26 3 15.52 3 23 C1.68 23 0.36 23 -1 23 C-1.02887512 19.35418313 -1.04675585 15.70839537 -1.0625 12.0625 C-1.07087891 11.02158203 -1.07925781 9.98066406 -1.08789062 8.90820312 C-1.09272461 7.42416992 -1.09272461 7.42416992 -1.09765625 5.91015625 C-1.10289307 4.99371338 -1.10812988 4.07727051 -1.11352539 3.13305664 C-1 1 -1 1 0 0 Z " fill="#ECFBFE" transform="translate(35,84)"/>
<path d="M0 0 C0.99 0 1.98 0 3 0 C3 9.9 3 19.8 3 30 C2.01 30 1.02 30 0 30 C0 20.1 0 10.2 0 0 Z " fill="#EEFCFE" transform="translate(55,81)"/>
<path d="M0 0 C0.28875 0.61875 0.5775 1.2375 0.875 1.875 C1.93720042 4.13325765 1.93720042 4.13325765 4 6 C3.01 7.485 3.01 7.485 2 9 C2.66 9.33 3.32 9.66 4 10 C3.67 10.66 3.34 11.32 3 12 C-2.36716665 12.83861979 -5.79627239 9.92070405 -10 7 C-9.01 6.34 -8.02 5.68 -7 5 C-5.98131338 4.01904252 -4.97648017 3.02297922 -4 2 C-4.66 1.67 -5.32 1.34 -6 1 C-3 0 -3 0 0 0 Z " fill="#3F9EE6" transform="translate(124,68)"/>
<path d="M0 0 C10.51089672 -0.09929322 17.71156165 0.9073245 26 8 C26.33 8.66 26.66 9.32 27 10 C25.02 9.34 23.04 8.68 21 8 C21 7.34 21 6.68 21 6 C19.68 6 18.36 6 17 6 C17 5.34 17 4.68 17 4 C15.00045254 3.95745644 12.99958364 3.95919217 11 4 C10.67 4.33 10.34 4.66 10 5 C5.83535074 5.16017882 2.05273808 4.98248196 -2 4 C-1.34 2.68 -0.68 1.36 0 0 Z " fill="#1B63B4" transform="translate(154,16)"/>
<path d="M0 0 C0.33 0 0.66 0 1 0 C1.05425226 2.39614126 1.09379027 4.79103853 1.125 7.1875 C1.14175781 7.86103516 1.15851563 8.53457031 1.17578125 9.22851562 C1.21538674 13.28807807 0.80020002 16.34998815 -1 20 C-1.66 19.34 -2.32 18.68 -3 18 C-5.93453261 18.36681658 -6.86437246 18.86437246 -9 21 C-9.66 20.34 -10.32 19.68 -11 19 C-10.9765625 16.1796875 -10.9765625 16.1796875 -10.625 12.875 C-10.51414063 11.77929688 -10.40328125 10.68359375 -10.2890625 9.5546875 C-10.14597656 8.29011719 -10.14597656 8.29011719 -10 7 C-9.34 7.33 -8.68 7.66 -8 8 C-8 10.64 -8 13.28 -8 16 C-6.68 16 -5.36 16 -4 16 C-4 14.68 -4 13.36 -4 12 C-2.68 12.33 -1.36 12.66 0 13 C0 8.71 0 4.42 0 0 Z " fill="#2469B9" transform="translate(190,84)"/>
<path d="M0 0 C-1.65 0.66 -3.3 1.32 -5 2 C-4.67 2.66 -4.34 3.32 -4 4 C-4.61875 4.12375 -5.2375 4.2475 -5.875 4.375 C-8.19120832 4.87197356 -8.19120832 4.87197356 -10 7 C-10 6.01 -10 5.02 -10 4 C-14.03944581 5.38495285 -16.70033698 7.32884422 -20 10 C-22.2974015 11.41009612 -24.63581464 12.70201588 -27 14 C-24.37293624 7.82504601 -18.87350182 4.26592321 -12.87890625 1.625 C-4.08508874 -1.4749014 -4.08508874 -1.4749014 0 0 Z " fill="#1A4A91" transform="translate(42,16)"/>
<path d="M0 0 C2.20192224 3.30288336 2.23959968 4.27462727 2.1953125 8.10546875 C2.18886719 9.08837891 2.18242187 10.07128906 2.17578125 11.08398438 C2.15902344 12.10814453 2.14226562 13.13230469 2.125 14.1875 C2.11597656 15.22326172 2.10695312 16.25902344 2.09765625 17.32617188 C2.0740786 19.88434685 2.0411703 22.44205748 2 25 C1.01 25 0.02 25 -1 25 C-1.02886984 21.02084841 -1.04675406 17.04172347 -1.0625 13.0625 C-1.07087891 11.92619141 -1.07925781 10.78988281 -1.08789062 9.61914062 C-1.09111328 8.53955078 -1.09433594 7.45996094 -1.09765625 6.34765625 C-1.10289307 5.34742432 -1.10812988 4.34719238 -1.11352539 3.31665039 C-1 1 -1 1 0 0 Z " fill="#F0FCFE" transform="translate(158,92)"/>
<path d="M0 0 C2.00720923 0.28674418 4.0085944 0.61866701 6 1 C5.67 1.66 5.34 2.32 5 3 C4.01 3 3.02 3 2 3 C1.34 13.56 0.68 24.12 0 35 C-0.33 35 -0.66 35 -1 35 C-1 26.75 -1 18.5 -1 10 C-2.32 10 -3.64 10 -5 10 C-5 9.34 -5 8.68 -5 8 C-4.01 8 -3.02 8 -2 8 C-1.855625 6.865625 -1.71125 5.73125 -1.5625 4.5625 C-1 1 -1 1 0 0 Z " fill="#56A1D8" transform="translate(155,74)"/>
<path d="M0 0 C0.66 0.33 1.32 0.66 2 1 C1.67 1.99 1.34 2.98 1 4 C-17.15 4 -35.3 4 -54 4 C-54 3.67 -54 3.34 -54 3 C-27.27 2.505 -27.27 2.505 0 2 C0 1.34 0 0.68 0 0 Z " fill="#3F93DE" transform="translate(104,179)"/>
<path d="M0 0 C1.32 0 2.64 0 4 0 C4 5.61 4 11.22 4 17 C2.68 17 1.36 17 0 17 C0 11.39 0 5.78 0 0 Z " fill="#DBF0FD" transform="translate(163,87)"/>
<path d="M0 0 C1.32 0 2.64 0 4 0 C4 5.61 4 11.22 4 17 C2.68 16.67 1.36 16.34 0 16 C0 10.72 0 5.44 0 0 Z " fill="#D8F2FE" transform="translate(61,87)"/>
<path d="M0 0 C1.32 0.33 2.64 0.66 4 1 C4 5.62 4 10.24 4 15 C2.68 15.33 1.36 15.66 0 16 C0 10.72 0 5.44 0 0 Z " fill="#D8F0FD" transform="translate(41,88)"/>
<path d="M0 0 C0.99 0 1.98 0 3 0 C3 5.28 3 10.56 3 16 C1.68 15.67 0.36 15.34 -1 15 C-1.02685412 12.68756208 -1.04632841 10.3750373 -1.0625 8.0625 C-1.07410156 6.77472656 -1.08570312 5.48695312 -1.09765625 4.16015625 C-1 1 -1 1 0 0 Z " fill="#D6ECF8" transform="translate(21,88)"/>
<path d="M0 0 C0.99 0.33 1.98 0.66 3 1 C2.96519531 2.13179688 2.93039063 3.26359375 2.89453125 4.4296875 C2.86639664 5.91144353 2.83909613 7.39321556 2.8125 8.875 C2.78736328 9.62136719 2.76222656 10.36773437 2.73632812 11.13671875 C2.6701236 13.56221828 2.6701236 13.56221828 3 17 C3.99 17.66 4.98 18.32 6 19 C5.01 19.33 4.02 19.66 3 20 C1.78130071 22.50447516 1.78130071 22.50447516 1 25 C0.34 24.67 -0.32 24.34 -1 24 C-0.67 16.08 -0.34 8.16 0 0 Z " fill="#4373AC" transform="translate(173,86)"/>
<path d="M0 0 C0.99 0 1.98 0 3 0 C3 4.95 3 9.9 3 15 C1.68 14.67 0.36 14.34 -1 14 C-1.02685938 11.85423363 -1.04633088 9.70837355 -1.0625 7.5625 C-1.07410156 6.36753906 -1.08570313 5.17257813 -1.09765625 3.94140625 C-1 1 -1 1 0 0 Z " fill="#D6ECF9" transform="translate(176,89)"/>
<path d="M0 0 C0.33 0 0.66 0 1 0 C1 7.26 1 14.52 1 22 C0.34 21.67 -0.32 21.34 -1 21 C-1.4140625 18.27734375 -1.4140625 18.27734375 -1.625 14.9375 C-1.69976563 13.83277344 -1.77453125 12.72804688 -1.8515625 11.58984375 C-1.90054687 10.73519531 -1.94953125 9.88054687 -2 9 C-3.65 9 -5.3 9 -7 9 C-6.67 8.01 -6.34 7.02 -6 6 C-4.02 5.67 -2.04 5.34 0 5 C0 3.35 0 1.7 0 0 Z " fill="#3776B8" transform="translate(26,80)"/>
<path d="M0 0 C0.33 0 0.66 0 1 0 C1 3.63 1 7.26 1 11 C-3.26511313 9.29395475 -5.61418999 7.90212286 -9 5 C-8.195625 4.87625 -7.39125 4.7525 -6.5625 4.625 C-5.716875 4.41875 -4.87125 4.2125 -4 4 C-3.67 3.34 -3.34 2.68 -3 2 C-2.34 2.33 -1.68 2.66 -1 3 C-0.67 2.01 -0.34 1.02 0 0 Z " fill="#49A0E1" transform="translate(149,85)"/>
<path d="M0 0 C0.33 0 0.66 0 1 0 C1.50704908 11.64334916 0.52763127 22.09600772 -6 32 C-7 29 -7 29 -7 26 C-6.34 26 -5.68 26 -5 26 C-4.67 24.02 -4.34 22.04 -4 20 C-3.34 20 -2.68 20 -2 20 C-1.34 13.4 -0.68 6.8 0 0 Z " fill="#184488" transform="translate(193,134)"/>
<path d="M0 0 C1.32 0 2.64 0 4 0 C3.67 0.66 3.34 1.32 3 2 C2.34 1.67 1.68 1.34 1 1 C1 5.29 1 9.58 1 14 C-0.32 14 -1.64 14 -3 14 C-3.33 10.04 -3.66 6.08 -4 2 C-3.01 2 -2.02 2 -1 2 C-1.33 4.64 -1.66 7.28 -2 10 C-1.34 10 -0.68 10 0 10 C0 6.7 0 3.4 0 0 Z " fill="#3F84CF" transform="translate(67,46)"/>
<path d="M0 0 C0.33 0 0.66 0 1 0 C1.33 7.92 1.66 15.84 2 24 C2.99 24.33 3.98 24.66 5 25 C5 25.66 5 26.32 5 27 C3.68 27 2.36 27 1 27 C0.566875 25.865625 0.13375 24.73125 -0.3125 23.5625 C-1.1478125 21.7990625 -1.1478125 21.7990625 -2 20 C-2.99 19.67 -3.98 19.34 -5 19 C-4.67 18.34 -4.34 17.68 -4 17 C-3.01 17 -2.02 17 -1 17 C-0.67 11.39 -0.34 5.78 0 0 Z " fill="#2D62A3" transform="translate(155,92)"/>
<path d="M0 0 C2.475 0.99 2.475 0.99 5 2 C5 4.64 5 7.28 5 10 C3.35 10.33 1.7 10.66 0 11 C0 7.37 0 3.74 0 0 Z " fill="#3185D3" transform="translate(10,102)"/>
<path d="M0 0 C0.66 0.33 1.32 0.66 2 1 C1.67 3.31 1.34 5.62 1 8 C0.67 7.34 0.34 6.68 0 6 C-0.66 6 -1.32 6 -2 6 C-2 15.9 -2 25.8 -2 36 C-2.33 36 -2.66 36 -3 36 C-3.0744013 31.67671196 -3.12871968 27.35376745 -3.16479492 23.0300293 C-3.17984066 21.56056218 -3.20028238 20.09113966 -3.22631836 18.62182617 C-3.26288955 16.5042823 -3.27976801 14.38733435 -3.29296875 12.26953125 C-3.3086792 10.99698486 -3.32438965 9.72443848 -3.34057617 8.41333008 C-2.97913177 4.79085399 -2.11371197 2.91823902 0 0 Z " fill="#2977C6" transform="translate(12,92)"/>
<path d="M0 0 C2.70860665 -0.05429278 5.41610901 -0.09381211 8.125 -0.125 C8.88554688 -0.14175781 9.64609375 -0.15851563 10.4296875 -0.17578125 C15.03270731 -0.21546246 18.66464004 0.24092423 23 2 C23 2.33 23 2.66 23 3 C20.47886908 3.05447822 17.9589415 3.09389852 15.4375 3.125 C14.73302734 3.14175781 14.02855469 3.15851563 13.30273438 3.17578125 C8.48108178 3.22022044 4.57702562 2.52768004 0 1 C0 0.67 0 0.34 0 0 Z " fill="#2467AD" transform="translate(33,182)"/>
<path d="M0 0 C1.32 0.66 2.64 1.32 4 2 C1.10215093 4.89784907 -0.88271145 5.92763675 -5.015625 6.1953125 C-6.08296875 6.17210937 -7.1503125 6.14890625 -8.25 6.125 C-9.32765625 6.10695312 -10.4053125 6.08890625 -11.515625 6.0703125 C-12.33546875 6.04710937 -13.1553125 6.02390625 -14 6 C-14 5.67 -14 5.34 -14 5 C-13.07316406 4.72285156 -12.14632812 4.44570312 -11.19140625 4.16015625 C-9.99386719 3.79792969 -8.79632813 3.43570313 -7.5625 3.0625 C-6.36753906 2.70285156 -5.17257813 2.34320313 -3.94140625 1.97265625 C-1.14132455 1.29110858 -1.14132455 1.29110858 0 0 Z " fill="#104BA1" transform="translate(166,177)"/>
<path d="M0 0 C0.33 0 0.66 0 1 0 C1 10.23 1 20.46 1 31 C-0.32 30.67 -1.64 30.34 -3 30 C-2.125 26.125 -2.125 26.125 -1 25 C-0.84213692 23.14825294 -0.74892644 21.2909089 -0.68359375 19.43359375 C-0.62075195 17.7465332 -0.62075195 17.7465332 -0.55664062 16.02539062 C-0.51732422 14.84138672 -0.47800781 13.65738281 -0.4375 12.4375 C-0.39431641 11.24962891 -0.35113281 10.06175781 -0.30664062 8.83789062 C-0.20016454 5.89205216 -0.09815159 2.9461257 0 0 Z " fill="#3D93DC" transform="translate(189,66)"/>
<path d="M0 0 C0.66 0.33 1.32 0.66 2 1 C3.41904116 5.54093172 3.09226843 10.2943099 3 15 C2.34 14.67 1.68 14.34 1 14 C0.59270772 11.67843403 0.25561323 9.3431213 0 7 C-0.99 7 -1.98 7 -3 7 C-3.33 9.31 -3.66 11.62 -4 14 C-4.33 14 -4.66 14 -5 14 C-5 11.03 -5 8.06 -5 5 C-3.02 5 -1.04 5 1 5 C0.67 3.35 0.34 1.7 0 0 Z " fill="#306EB2" transform="translate(44,82)"/>
<path d="M0 0 C0.66 0.33 1.32 0.66 2 1 C2.625 3.0625 2.625 3.0625 3 5 C2.34 5 1.68 5 1 5 C0.67 5.66 0.34 6.32 0 7 C-0.99 6.67 -1.98 6.34 -3 6 C-6.1668838 7.37492804 -6.1668838 7.37492804 -9 9 C-8.63030147 6.34385824 -8.29524408 5.25241746 -6.22265625 3.48046875 C-5.50980469 3.05378906 -4.79695313 2.62710938 -4.0625 2.1875 C-3.35222656 1.74792969 -2.64195313 1.30835938 -1.91015625 0.85546875 C-1.27980469 0.57316406 -0.64945313 0.29085937 0 0 Z " fill="#2F6AB2" transform="translate(91,136)"/>
<path d="M0 0 C2.0625 0.4375 2.0625 0.4375 4 1 C4 2.98 4 4.96 4 7 C2.35 7.33 0.7 7.66 -1 8 C-1.04241723 5.66705225 -1.04092937 3.33297433 -1 1 C-0.67 0.67 -0.34 0.34 0 0 Z " fill="#99C3E9" transform="translate(14,92)"/>
<path d="M0 0 C0.66 0.33 1.32 0.66 2 1 C0.60560968 5.18317095 -2.32153812 6.04847917 -6 8 C-7.66979326 8.99477045 -9.33779419 9.99260254 -11 11 C-9.52202738 7.32943063 -7.52384523 5.58914217 -4.375 3.25 C-3.55773437 2.63640625 -2.74046875 2.0228125 -1.8984375 1.390625 C-0.95871094 0.70226562 -0.95871094 0.70226562 0 0 Z " fill="#274F93" transform="translate(26,19)"/>
<path d="M0 0 C0.33 0 0.66 0 1 0 C1.06058594 0.85464844 1.12117188 1.70929688 1.18359375 2.58984375 C1.26738281 3.69457031 1.35117187 4.79929687 1.4375 5.9375 C1.51871094 7.03964844 1.59992187 8.14179687 1.68359375 9.27734375 C1.70418084 11.91109903 1.70418084 11.91109903 3 13 C3.14115161 15.67058851 3.04247107 18.32432238 3 21 C2.67 21 2.34 21 2 21 C2 19.35 2 17.7 2 16 C0.02 16 -1.96 16 -4 16 C-3.67 15.34 -3.34 14.68 -3 14 C-2.01 14.33 -1.02 14.66 0 15 C0 10.05 0 5.1 0 0 Z " fill="#5695D0" transform="translate(24,89)"/>
<path d="M0 0 C2 2 2 2 2 5 C3.32 4.67 4.64 4.34 6 4 C5.67 5.32 5.34 6.64 5 8 C1.00499382 6.6302836 -1.80009492 4.74277578 -5 2 C-3.35 1.34 -1.7 0.68 0 0 Z " fill="#4FA2E1" transform="translate(119,72)"/>
<path d="M0 0 C-1.32 2.97 -2.64 5.94 -4 9 C-4.99 8.01 -5.98 7.02 -7 6 C-6.9375 3.4375 -6.9375 3.4375 -6 1 C-2.69333333 -1.34666667 -2.69333333 -1.34666667 0 0 Z " fill="#114EA2" transform="translate(17,38)"/>
<path d="M0 0 C3 1 3 1 4 3 C4.99 3 5.98 3 7 3 C6.01 4.485 6.01 4.485 5 6 C4.01 6 3.02 6 2 6 C1.67 6.66 1.34 7.32 1 8 C2.98 8.495 2.98 8.495 5 9 C1.125 10 1.125 10 0 10 C0 6.7 0 3.4 0 0 Z " fill="#4CA5E1" transform="translate(161,77)"/>
<path d="M0 0 C1.35665057 2.71330113 1 4.98001855 1 8 C1.291224 9.67453799 1.61070799 11.34550895 2 13 C0.68 12.34 -0.64 11.68 -2 11 C-2.66 11.99 -3.32 12.98 -4 14 C-3.46148032 8.72250715 -2.22656164 4.74354436 0 0 Z " fill="#1F4F95" transform="translate(10,36)"/>
<path d="M0 0 C0.66 0.33 1.32 0.66 2 1 C2 3.64 2 6.28 2 9 C2.99 9.33 3.98 9.66 5 10 C3.66666667 11.33333333 2.33333333 12.66666667 1 14 C0.34 13.34 -0.32 12.68 -1 12 C-0.9765625 9.1796875 -0.9765625 9.1796875 -0.625 5.875 C-0.51414063 4.77929688 -0.40328125 3.68359375 -0.2890625 2.5546875 C-0.14597656 1.29011719 -0.14597656 1.29011719 0 0 Z " fill="#3870B1" transform="translate(180,91)"/>
<path d="M0 0 C0 0.66 0 1.32 0 2 C-0.66 2 -1.32 2 -2 2 C-2.33 3.32 -2.66 4.64 -3 6 C-5.98241547 6.77321882 -8.97580475 7.41196203 -12 8 C-4.57142857 0 -4.57142857 0 0 0 Z " fill="#427CBE" transform="translate(82,143)"/>
<path d="M0 0 C0.99 0.33 1.98 0.66 3 1 C3 3.31 3 5.62 3 8 C1.68 8 0.36 8 -1 8 C-1.04241723 5.66705225 -1.04092937 3.33297433 -1 1 C-0.67 0.67 -0.34 0.34 0 0 Z " fill="#D5F0FC" transform="translate(183,92)"/>
<path d="M0 0 C-1.375 1.5 -1.375 1.5 -3 3 C-3.66 3 -4.32 3 -5 3 C-5.12375 3.639375 -5.2475 4.27875 -5.375 4.9375 C-5.58125 5.618125 -5.7875 6.29875 -6 7 C-6.99 7.495 -6.99 7.495 -8 8 C-8 5.69 -8 3.38 -8 1 C-4.93251126 -0.86240388 -3.40254489 -1.2151946 0 0 Z " fill="#256FC4" transform="translate(17,89)"/>
<path d="M0 0 C0.99 0.33 1.98 0.66 3 1 C3 8.26 3 15.52 3 23 C2.67 23 2.34 23 2 23 C2 16.4 2 9.8 2 3 C1.01 3 0.02 3 -1 3 C-0.67 2.01 -0.34 1.02 0 0 Z " fill="#CAE4FB" transform="translate(35,84)"/>
<path d="M0 0 C0.556875 0.391875 1.11375 0.78375 1.6875 1.1875 C-2.0625 4.1875 -2.0625 4.1875 -4.3125 4.1875 C-6.31462229 4.50783957 -8.31489695 4.84009077 -10.3125 5.1875 C-4.26367188 -1.49804688 -4.26367188 -1.49804688 0 0 Z " fill="#29579C" transform="translate(134.3125,110.8125)"/>
<path d="M0 0 C0.99 0 1.98 0 3 0 C0.82367811 4.89672424 -1.88229672 8.98947371 -7 11 C-5.54682061 7.6092481 -3.58699688 5.58699688 -1 3 C-0.67 2.01 -0.34 1.02 0 0 Z " fill="#16448A" transform="translate(183,166)"/>
<path d="M0 0 C2.5 2.3125 2.5 2.3125 5 5 C5 5.99 5 6.98 5 8 C4.34 8 3.68 8 3 8 C1.68 8.33 0.36 8.66 -1 9 C-0.67 6.03 -0.34 3.06 0 0 Z " fill="#2763AD" transform="translate(181,26)"/>
<path d="M0 0 C0.99 0 1.98 0 3 0 C3 3.96 3 7.92 3 12 C2.67 12 2.34 12 2 12 C1.67 10.35 1.34 8.7 1 7 C0.67 7 0.34 7 0 7 C0 4.69 0 2.38 0 0 Z " fill="#DFFAFE" transform="translate(157,76)"/>
<path d="M0 0 C1.44098611 0.76429661 2.87766054 1.53672555 4.3125 2.3125 C5.11300781 2.74175781 5.91351563 3.17101562 6.73828125 3.61328125 C8.83787272 4.90059554 10.35447721 6.18406708 12 8 C7.8333396 7.52651586 5.07115285 6.95303159 2 4 C2 3.34 2 2.68 2 2 C1.34 2 0.68 2 0 2 C0 1.34 0 0.68 0 0 Z " fill="#DEF6FD" transform="translate(118,77)"/>
<path d="M0 0 C0.66 0.33 1.32 0.66 2 1 C1.01 2.485 1.01 2.485 0 4 C-0.99 4 -1.98 4 -3 4 C-2.67 5.65 -2.34 7.3 -2 9 C-3.32 7.35 -4.64 5.7 -6 4 C-4.02 2.68 -2.04 1.36 0 0 Z " fill="#3B8FDB" transform="translate(106,143)"/>
<path d="M0 0 C0 1.98 0 3.96 0 6 C-1.65 6.33 -3.3 6.66 -5 7 C-4.6875 4.625 -4.6875 4.625 -4 2 C-1 0 -1 0 0 0 Z " fill="#2662AF" transform="translate(97,133)"/>
<path d="M0 0 C0.433125 0.639375 0.86625 1.27875 1.3125 1.9375 C2.91239177 4.26746003 2.91239177 4.26746003 6 5 C6.33 5.99 6.66 6.98 7 8 C2.89041233 6.54955729 -0.43258745 4.48889248 -4 2 C-3.34 1.67 -2.68 1.34 -2 1 C-1.34 1.33 -0.68 1.66 0 2 C0 1.34 0 0.68 0 0 Z " fill="#559CD7" transform="translate(107,66)"/>
<path d="M0 0 C1.98 0.99 1.98 0.99 4 2 C3.01 2.495 3.01 2.495 2 3 C1.53045739 6.04581269 1.53045739 6.04581269 1.375 9.5625 C1.30023438 10.76003906 1.22546875 11.95757812 1.1484375 13.19140625 C1.09945312 14.11824219 1.05046875 15.04507813 1 16 C0.67 16 0.34 16 0 16 C0 10.72 0 5.44 0 0 Z " fill="#3D7BB8" transform="translate(33,82)"/>
<path d="M0 0 C2.475 0.495 2.475 0.495 5 1 C5 2.32 5 3.64 5 5 C2.525 4.01 2.525 4.01 0 3 C0 2.01 0 1.02 0 0 Z " fill="#4FB9F8" transform="translate(168,26)"/>
<path d="M0 0 C0.66 0.33 1.32 0.66 2 1 C1.67 3.31 1.34 5.62 1 8 C0.67 7.34 0.34 6.68 0 6 C-0.66 6 -1.32 6 -2 6 C-2 7.65 -2 9.3 -2 11 C-2.33 11 -2.66 11 -3 11 C-3.32613618 6.32538149 -2.70582788 3.83325617 0 0 Z " fill="#347BC4" transform="translate(12,92)"/>
<path d="M0 0 C0.33 0.66 0.66 1.32 1 2 C1.99 1.67 2.98 1.34 4 1 C3.67 3.31 3.34 5.62 3 8 C1 5 1 5 1 3 C-0.65 3 -2.3 3 -4 3 C-2.68 2.01 -1.36 1.02 0 0 Z " fill="#41A7ED" transform="translate(185,87)"/>
<path d="M0 0 C4.43458973 1.3937282 6.87378374 3.60582235 10 7 C8.02 6.34 6.04 5.68 4 5 C4 4.34 4 3.68 4 3 C2.68 3 1.36 3 0 3 C0 2.01 0 1.02 0 0 Z " fill="#3164A2" transform="translate(171,19)"/>
<path d="M0 0 C2.375 0.75 2.375 0.75 5 2 C5.66 3.32 6.32 4.64 7 6 C4.36 4.68 1.72 3.36 -1 2 C-0.67 1.34 -0.34 0.68 0 0 Z " fill="#2366AA" transform="translate(25,176)"/>
<path d="M0 0 C0.66 0.66 1.32 1.32 2 2 C-0.97 3.65 -3.94 5.3 -7 7 C-4.91100178 2.82200357 -3.94455388 2.07608099 0 0 Z " fill="#DAEEFA" transform="translate(86,137)"/>
<path d="M0 0 C0 0.66 0 1.32 0 2 C-0.66 2 -1.32 2 -2 2 C-2.66 3.32 -3.32 4.64 -4 6 C-4.99 6 -5.98 6 -7 6 C-5.52522876 2.59668175 -4.14385429 0 0 0 Z " fill="#285397" transform="translate(104,129)"/>
<path d="M0 0 C0.33 0 0.66 0 1 0 C1 3.63 1 7.26 1 11 C-1.475 10.01 -1.475 10.01 -4 9 C-2.68 8.67 -1.36 8.34 0 8 C0 5.36 0 2.72 0 0 Z " fill="#6AA9DE" transform="translate(149,85)"/>
<path d="M0 0 C0.33 0 0.66 0 1 0 C1.06058594 0.68707031 1.12117188 1.37414062 1.18359375 2.08203125 C1.26738281 2.98308594 1.35117187 3.88414063 1.4375 4.8125 C1.51871094 5.70582031 1.59992187 6.59914063 1.68359375 7.51953125 C1.93489767 10.12743559 1.93489767 10.12743559 3 13 C2.01 13 1.02 13 0 13 C0 8.71 0 4.42 0 0 Z " fill="#D8F8FD" transform="translate(55,98)"/>
<path d="M0 0 C0.99 0.33 1.98 0.66 3 1 C3 2.32 3 3.64 3 5 C1.35 5.66 -0.3 6.32 -2 7 C-1.67 6.01 -1.34 5.02 -1 4 C-0.34 4 0.32 4 1 4 C0.67 2.68 0.34 1.36 0 0 Z " fill="#DCECFC" transform="translate(146,95)"/>
<path d="M0 0 C1.11375 0.3403125 1.11375 0.3403125 2.25 0.6875 C2.25 1.3475 2.25 2.0075 2.25 2.6875 C-0.75 2.6875 -3.75 2.6875 -6.75 2.6875 C-4.29511132 0.41445492 -3.41240272 -0.38777304 0 0 Z " fill="#2963AF" transform="translate(168.75,17.3125)"/>
<path d="M0 0 C0.598125 0.20625 1.19625 0.4125 1.8125 0.625 C-3.9375 4.625 -3.9375 4.625 -6.1875 4.625 C-5.03076352 1.15479057 -3.91311293 -0.67081936 0 0 Z " fill="#D9ECF9" transform="translate(111.1875,122.375)"/>
<path d="M0 0 C0.99 0.66 1.98 1.32 3 2 C2.01 2.33 1.02 2.66 0 3 C-0.73323796 5.01508358 -0.73323796 5.01508358 -1 7 C-1.33 7 -1.66 7 -2 7 C-2 5.02 -2 3.04 -2 1 C-1.34 0.67 -0.68 0.34 0 0 Z " fill="#4893D4" transform="translate(61,103)"/>
<path d="M0 0 C0.99 0 1.98 0 3 0 C3 1.98 3 3.96 3 6 C2.01 6 1.02 6 0 6 C0 4.02 0 2.04 0 0 Z " fill="#E4FAFE" transform="translate(14,94)"/>
</svg>
